# xmcd
#
# Track frame offsets:
#	150
#	17098
#	37837
#	55764
#	77215
#	92178
#	111492
#	129268
#	146932
#	166167
#
# Disc length: 2483 seconds
#
# Revision: 1
# Processed by: cddbd v1.5.1PL0 Copyright (c) Steve Scherf et al.
# Submitted via: audiograbber 1.83.01
#
DISCID=8009b10a
DTITLE=Mac Davis - Texas In My Rear View Mirror
DYEAR=1900
DGENRE=Country
TTITLE0=Hooked On Music
TTITLE1=Remember When (Beverly's Song)
TTITLE2=Me 'n Fat Boy
TTITLE3=Hot Texas Night
TTITLE4=Sad Songs
TTITLE5=Texas In My Rear View Mirror
TTITLE6=Hello, Hollywood
TTITLE7=Rodeo Clown
TTITLE8=Secrets
TTITLE9=In The Eyes of My People
EXTD=
EXTT0=
EXTT1=
EXTT2=
EXTT3=
EXTT4=
EXTT5=
EXTT6=
EXTT7=
EXTT8=
EXTT9=
PLAYORDER=
